<svg version="1.0" xmlns="http://www.w3.org/2000/svg" width="350" height="350" fill="#774724">
    <path
        d="M175 81S175 296 175 286C158 290 81 303 48 230 29 175 46 158 64 109 59 89 47 64 52 54 64 50 81 66 106 74 115 68 155 66 175 66ZM125 168C103 168 103 202 125 202 147 202 147 168 125 168Z" />
    <path
        d="m174 81s0 215 0 205c17 4 94 17 127-56 19-55 2-72-16-121 5-20 17-45 12-55-12-4-29 12-54 20-9-6-49-8-69-8zm50 87c22 0 22 34 0 34-22 0-22-34 0-34z" />
    <path d="m125 172c-17 0-17 26 0 26 17 0 17-26 0-26zm4 12c5 0 5 7 0 7-5 0-5-7 0-7z" />
    <path d="m224 172c17 0 17 26 0 26-17 0-17-26 0-26zm-4 12c-5 0-5 7 0 7 5 0 5-7 0-7z" />
</svg>